<svg viewBox="0 0 120 120" fill="none" xmlns="http://www.w3.org/2000/svg"><path d="M44.61 34.304a8 8 0 0 1 8.666-7.272l47.817 4.183a8 8 0 0 1 7.273 8.667l-5.578 63.757a8 8 0 0 1-8.667 7.272l-47.817-4.184a8 8 0 0 1-7.273-8.666l5.578-63.757Z" fill="#F0F2F5"/><path fill-rule="evenodd" clip-rule="evenodd" d="M43.64 33.793a9 9 0 0 1 9.75-8.181l47.818 4.183a9 9 0 0 1 8.182 9.75l-5.578 63.757a9 9 0 0 1-9.75 8.181L46.243 107.3a9 9 0 0 1-8.181-9.75l5.578-63.757Zm9.577-6.189a7 7 0 0 0-7.584 6.364l-5.578 63.756a7 7 0 0 0 6.363 7.583l47.818 4.184a7 7 0 0 0 7.583-6.363l5.578-63.757a7 7 0 0 0-6.363-7.583l-47.817-4.184Z" fill="#3F4B5A"/><circle cx="74.946" cy="54.602" r="16" transform="rotate(5 74.946 54.602)" fill="#C3CBD5"/><path opacity=".1" fill-rule="evenodd" clip-rule="evenodd" d="m82.27 29.569 5.068 57.915a8 8 0 0 1-7.273 8.667L39.06 99.74a8.035 8.035 0 0 1-.028-1.678l5.578-63.757a8 8 0 0 1 8.667-7.272l28.995 2.537Z" fill="#3F4B5A"/><path fill="#C3CBD5" d="m53.105 74.774 39.848 3.486-.523 5.977-39.848-3.486zM51.885 88.722l19.924 1.743-.523 5.977L51.362 94.7z"/><path d="M12.031 22.882a8 8 0 0 1 7.272-8.667l47.818-4.183a8 8 0 0 1 8.667 7.272l5.578 63.757a8 8 0 0 1-7.273 8.666l-47.817 4.184a8 8 0 0 1-8.667-7.272l-5.578-63.757Z" fill="#fff"/><path fill-rule="evenodd" clip-rule="evenodd" d="M74.791 17.391a7 7 0 0 0-7.583-6.363l-47.817 4.184a7 7 0 0 0-6.364 7.583l5.578 63.757a7 7 0 0 0 7.584 6.363l47.817-4.184a7 7 0 0 0 6.363-7.583l-4.817-55.06a1 1 0 1 1 1.993-.174l4.817 55.06a9 9 0 0 1-8.182 9.75l-47.817 4.183a9 9 0 0 1-9.75-8.181l-5.578-63.757a9 9 0 0 1 8.181-9.75l47.818-4.183a9 9 0 0 1 9.75 8.181 1 1 0 1 1-1.993.174Z" fill="#3F4B5A"/><circle cx="45.478" cy="38.024" r="16" transform="rotate(-5 45.478 38.024)" fill="#E1E5EA"/><path fill-rule="evenodd" clip-rule="evenodd" d="M44.171 23.081c-8.253.722-14.358 7.998-13.636 16.25.723 8.253 7.998 14.358 16.25 13.636 8.253-.722 14.358-7.998 13.636-16.25a14.926 14.926 0 0 0-3.32-8.179 1 1 0 1 1 1.547-1.266 16.925 16.925 0 0 1 3.766 9.27c.818 9.354-6.1 17.6-15.454 18.417-9.353.819-17.599-6.1-18.417-15.453-.818-9.353 6.1-17.599 15.454-18.417 2.576-.226 5.07.136 7.349.976a1 1 0 0 1-.691 1.877 14.938 14.938 0 0 0-6.484-.86Zm8.608.669a1 1 0 0 1 1.371-.35c.49.291.963.606 1.42.943a1 1 0 1 1-1.188 1.609 15.063 15.063 0 0 0-1.253-.832 1 1 0 0 1-.35-1.37Z" fill="#3F4B5A"/><path d="M45.478 38.024c-2.842.249-5.341 1.589-7.164 3.6-3.68 4.055 1.235 8.965 6.551 8.5l3.318-.29c5.316-.466 9.303-6.154 4.976-9.51-2.145-1.663-4.839-2.548-7.68-2.3Z" fill="#fff"/><path fill-rule="evenodd" clip-rule="evenodd" d="M45.566 39.02c-2.575.225-4.846 1.439-6.512 3.275-.77.849-1.035 1.673-1.017 2.407.02.75.34 1.516.94 2.217 1.214 1.42 3.451 2.414 5.801 2.208l3.318-.29c2.35-.206 4.38-1.572 5.33-3.182.469-.795.65-1.605.54-2.346-.109-.727-.514-1.492-1.42-2.194-1.959-1.52-4.406-2.32-6.98-2.095Zm-7.993 1.931c1.981-2.184 4.709-3.651 7.818-3.923 3.11-.272 6.05.7 8.381 2.506 1.258.976 1.977 2.18 2.172 3.478.192 1.284-.143 2.554-.795 3.659-1.291 2.19-3.913 3.899-6.879 4.159l-3.318.29c-2.966.26-5.844-.97-7.496-2.901-.834-.975-1.384-2.168-1.418-3.465-.034-1.313.465-2.623 1.535-3.802Z" fill="#3F4B5A"/><path d="m43.747 41.187 3.985-.349-.734 3.076-1.993.174-1.258-2.901Z" fill="#FF5A02"/><path d="m44.444 49.152 3.985-.349-1.432-4.89-1.992.175-.56 5.064Z" fill="#FF5A02"/><path d="M45.75 41.312c3.614-.316 6.264-3.762 5.92-7.696-.646-3.789.407-4.308-.03-7.517-3.123 1.982-6.81-2.481-9.872 1.974-4.395-.897-4.172 3.442-3.182 6.688.344 3.934 3.552 6.867 7.165 6.551Z" fill="#fff"/><path d="m51.67 33.616.996-.087-.004-.04-.007-.04-.986.167Zm-13.084 1.145.996-.087-.009-.105-.03-.1-.957.292Zm13.053-8.662.991-.136a1 1 0 0 0-1.526-.709l.535.845Zm-9.871 1.974-.2.98.649.133.375-.546-.824-.567Zm8.905 5.63c.303 3.466-2.025 6.352-5.01 6.613l.175 1.992c4.241-.37 7.213-4.376 6.828-8.78l-1.993.175Zm-5.01 6.613c-2.984.261-5.778-2.177-6.08-5.642l-1.993.174c.385 4.403 4.007 7.831 8.248 7.46l-.174-1.992Zm4.986-14.082c.199 1.461.063 2.277-.064 3.28-.137 1.07-.245 2.25.099 4.27l1.971-.336c-.301-1.77-.206-2.742-.086-3.682.128-1.007.3-2.055.061-3.802l-1.981.27Zm-11.107 8.235c-.482-1.583-.713-3.251-.419-4.347.138-.512.364-.807.65-.97.298-.17.837-.294 1.795-.099l.4-1.96c-1.24-.253-2.321-.171-3.186.321-.877.5-1.358 1.324-1.59 2.19-.446 1.661-.07 3.785.438 5.449l1.912-.584Zm3.05-5.83c.66-.96 1.287-1.352 1.85-1.515.596-.172 1.252-.13 2.059.018.724.133 1.734.396 2.626.471.967.082 2.024-.02 3.048-.67l-1.071-1.689c-.537.341-1.112.425-1.81.366-.773-.065-1.462-.267-2.432-.445-.889-.163-1.923-.277-2.977.028-1.088.316-2.07 1.038-2.941 2.304l1.648 1.133Z" fill="#3F4B5A"/><path d="M45.751 41.312c3.613-.316 6.263-3.762 5.919-7.696-.646-3.79.407-4.309-.03-7.518-3.123 1.983-6.81-2.48-9.872 1.975-4.395-.898-4.172 3.441-3.182 6.687.344 3.935 3.552 6.868 7.165 6.552Z" fill="#fff"/><path fill-rule="evenodd" clip-rule="evenodd" d="M44.442 27.124c-.563.163-1.19.554-1.85 1.515l-.375.546-.65-.132c-.957-.196-1.496-.072-1.795.099-.285.162-.511.457-.648.97-.294 1.096-.064 2.764.419 4.346l.03.1.01.105c.303 3.466 3.096 5.904 6.081 5.642 2.973-.26 5.295-3.125 5.013-6.573-.336-1.995-.227-3.167-.092-4.229l.027-.213c.075-.578.144-1.112.137-1.772a5.475 5.475 0 0 1-1.622.085c-.625-.053-1.307-.198-1.91-.325-.257-.055-.5-.107-.716-.146-.806-.148-1.463-.19-2.06-.018Zm4.852-1.504c.698.059 1.273-.026 1.81-.366a1 1 0 0 1 1.526.709c.222 1.623.09 2.643-.033 3.587-.01.072-.02.144-.028.216-.12.94-.215 1.912.086 3.682l.007.04.004.04c.385 4.403-2.586 8.409-6.828 8.78-4.207.368-7.805-3.003-8.238-7.355-.492-1.648-.845-3.721-.408-5.35.232-.865.713-1.69 1.59-2.19.713-.405 1.572-.532 2.546-.422.773-.951 1.627-1.518 2.557-1.788 1.055-.306 2.089-.191 2.977-.029.342.063.649.129.937.19.53.114.995.214 1.495.256Z" fill="#3F4B5A"/><path fill="#E1E5EA" d="m27.472 61.685 39.848-3.486.523 5.977-39.848 3.486zM28.692 75.63l19.924-1.743.523 5.977-19.924 1.743z"/><circle cx="96" cy="27" r="12" fill="#46B99E"/><path fill-rule="evenodd" clip-rule="evenodd" d="M96 21a1 1 0 0 0-1 1v4h-4a1 1 0 1 0 0 2h4v4a1 1 0 1 0 2 0v-4h4a1 1 0 0 0 0-2h-4v-4a1 1 0 0 0-1-1Z" fill="#fff"/><path fill-rule="evenodd" clip-rule="evenodd" d="M85 5a1 1 0 1 0 0 2 1 1 0 0 0 0-2Zm-3 1a3 3 0 1 1 6 0 3 3 0 0 1-6 0ZM93 7a1 1 0 0 1 1 1v4a1 1 0 1 1-2 0V8a1 1 0 0 1 1-1Z" fill="#FF5A02"/><path fill-rule="evenodd" clip-rule="evenodd" d="M96 10a1 1 0 0 1-1 1h-4a1 1 0 1 1 0-2h4a1 1 0 0 1 1 1Z" fill="#FF5A02"/><circle cx="83.5" cy="16.5" r="1.5" fill="#FF5A02"/></svg>