<svg viewBox="0 0 120 120" fill="none" xmlns="http://www.w3.org/2000/svg">
<path d="M15 28.3333C15 24.6514 17.9848 21.6667 21.6667 21.6667H98.3333C102.015 21.6667 105 24.6514 105 28.3333V91.6667C105 95.3486 102.015 98.3333 98.3333 98.3333H21.6667C17.9848 98.3333 15 95.3486 15 91.6667V28.3333Z" fill="white"/>
<path d="M15 35H41.6667V98.3333H19C16.7909 98.3333 15 96.5425 15 94.3333V35Z" fill="#546478"/>
<path fill-rule="evenodd" clip-rule="evenodd" d="M35 46.6667H21.6667V43.3333H35V46.6667Z" fill="white"/>
<path fill-rule="evenodd" clip-rule="evenodd" d="M66.6666 46.6667H48.3333V43.3333H66.6666V46.6667Z" fill="#C3CBD5"/>
<path fill-rule="evenodd" clip-rule="evenodd" d="M35 30H21.6667V26.6667H35V30Z" fill="#C3CBD5"/>
<path fill-rule="evenodd" clip-rule="evenodd" d="M35 56.6667H21.6667V53.3333H35V56.6667Z" fill="white"/>
<path fill-rule="evenodd" clip-rule="evenodd" d="M35 66.6667H21.6667V63.3333H35V66.6667Z" fill="white"/>
<path fill-rule="evenodd" clip-rule="evenodd" d="M35 76.6667H21.6667V73.3333H35V76.6667Z" fill="white"/>
<path fill-rule="evenodd" clip-rule="evenodd" d="M21.6667 22.6667C18.5371 22.6667 16 25.2037 16 28.3333V91.6667C16 94.7963 18.5371 97.3333 21.6667 97.3333H98.3333C101.463 97.3333 104 94.7963 104 91.6667V28.3333C104 25.2037 101.463 22.6667 98.3333 22.6667H90.8333V20.6667H98.3333C102.568 20.6667 106 24.0992 106 28.3333V91.6667C106 95.9009 102.568 99.3333 98.3333 99.3333H21.6667C17.4325 99.3333 14 95.9008 14 91.6667V28.3333C14 24.0992 17.4325 20.6667 21.6667 20.6667H85V22.6667H21.6667Z" fill="#3F4B5A"/>
<path fill-rule="evenodd" clip-rule="evenodd" d="M105 36H15V34H105V36Z" fill="#3F4B5A"/>
<rect x="48.3333" y="51.6667" width="23.3333" height="23.3333" rx="1" fill="#F0F2F5"/>
<rect x="48.3333" y="78.3333" width="48.3333" height="13.3333" rx="1" fill="#F0F2F5"/>
<rect x="75" y="51.6667" width="21.6667" height="23.3333" rx="1" fill="#F0F2F5"/>
<path d="M60 33.3333C60 31.4924 61.4924 30 63.3333 30H106.667C108.508 30 110 31.4924 110 33.3333V50C110 51.8409 108.508 53.3333 106.667 53.3333H63.3333C61.4924 53.3333 60 51.8409 60 50V33.3333Z" fill="#FF5A02"/>
<path d="M64.139 46.6667V36.0026H67.574C68.5164 36.0026 69.3636 36.2175 70.1155 36.6471C70.8675 37.0719 71.4534 37.675 71.8734 38.4562C72.2982 39.2326 72.513 40.1042 72.5179 41.071V41.5617C72.5179 42.5383 72.3104 43.4147 71.8953 44.1911C71.4852 44.9626 70.9041 45.568 70.1522 46.0075C69.4051 46.4421 68.5701 46.6618 67.6473 46.6667H64.139ZM66.7098 37.9875V44.6891H67.6033C68.3406 44.6891 68.907 44.4279 69.3026 43.9054C69.6981 43.3781 69.8958 42.5968 69.8958 41.5617V41.1003C69.8958 40.07 69.6981 39.2936 69.3026 38.7712C68.907 38.2487 68.3309 37.9875 67.574 37.9875H66.7098Z" fill="white"/>
<path d="M80.6 42.1476H76.557V44.6891H81.3324V46.6667H73.9862V36.0026H81.3471V37.9875H76.557V40.236H80.6V42.1476Z" fill="white"/>
<path d="M85.9063 36.0026L88.2866 43.422L90.6597 36.0026H94.0435V46.6667H91.4653V44.1764L91.7144 39.0788L89.1362 46.6667H87.437L84.8516 39.0715L85.1006 44.1764V46.6667H82.5298V36.0026H85.9063Z" fill="white"/>
<path d="M104.865 41.5544C104.865 42.5944 104.672 43.5148 104.286 44.3156C103.901 45.1164 103.351 45.7341 102.638 46.1686C101.93 46.5983 101.122 46.8132 100.214 46.8132C99.3058 46.8132 98.5001 46.6056 97.797 46.1906C97.0939 45.7707 96.5445 45.1725 96.149 44.3962C95.7584 43.6198 95.5533 42.7287 95.5338 41.7228V41.1222C95.5338 40.0773 95.7242 39.1569 96.1051 38.361C96.4908 37.5602 97.0402 36.9426 97.753 36.508C98.4708 36.0734 99.2862 35.8561 100.199 35.8561C101.103 35.8561 101.908 36.071 102.616 36.5007C103.324 36.9303 103.874 37.5431 104.264 38.339C104.66 39.1301 104.86 40.0383 104.865 41.0636V41.5544ZM102.25 41.1076C102.25 40.048 102.072 39.2448 101.715 38.6979C101.364 38.1462 100.859 37.8703 100.199 37.8703C98.9103 37.8703 98.2291 38.8371 98.1559 40.7707L98.1486 41.5544C98.1486 42.5993 98.3219 43.4025 98.6686 43.964C99.0153 44.5256 99.5304 44.8063 100.214 44.8063C100.863 44.8063 101.364 44.5304 101.715 43.9787C102.067 43.4269 102.245 42.6335 102.25 41.5983V41.1076Z" fill="white"/>
</svg>
